<svg width="16" height="16" viewBox="0 0 16 16" fill="none" xmlns="http://www.w3.org/2000/svg">
<path d="M3.33337 12.6666H4.17437L10.9987 5.84225L10.1577 5.00125L3.33337 11.8256V12.6666ZM2.93604 13.6666C2.76526 13.6666 2.62215 13.6088 2.50671 13.4933C2.39115 13.3778 2.33337 13.2347 2.33337 13.0639V11.9089C2.33337 11.7464 2.3646 11.5914 2.42704 11.4441C2.48937 11.2968 2.57526 11.1684 2.68471 11.0589L11.127 2.62042C11.2278 2.52886 11.3391 2.45814 11.4609 2.40825C11.5828 2.35825 11.7105 2.33325 11.8442 2.33325C11.9779 2.33325 12.1073 2.35697 12.2325 2.40442C12.3579 2.45186 12.4688 2.52731 12.5654 2.63075L13.3795 3.45509C13.483 3.55164 13.5567 3.66275 13.6007 3.78842C13.6447 3.91409 13.6667 4.03975 13.6667 4.16542C13.6667 4.29953 13.6438 4.42747 13.598 4.54925C13.5523 4.67114 13.4794 4.78247 13.3795 4.88325L4.94104 13.3153C4.8316 13.4247 4.70321 13.5106 4.55587 13.5729C4.40854 13.6354 4.2536 13.6666 4.09104 13.6666H2.93604ZM10.5709 5.42909L10.1577 5.00125L10.9987 5.84225L10.5709 5.42909Z" fill="#331D24"/>
</svg>
