<svg width="24" height="24" viewBox="0 0 24 24" fill="none" xmlns="http://www.w3.org/2000/svg">
<mask id="mask0_279_681" style="mask-type:alpha" maskUnits="userSpaceOnUse" x="0" y="0" width="24" height="24">
<rect width="24" height="24" fill="#D9D9D9"/>
</mask>
<g mask="url(#mask0_279_681)">
<path d="M9.29997 20.925L0.974976 12.625C0.891642 12.5417 0.829309 12.4457 0.787976 12.337C0.745976 12.229 0.724976 12.1167 0.724976 12C0.724976 11.8833 0.745976 11.7707 0.787976 11.662C0.829309 11.554 0.891642 11.4583 0.974976 11.375L9.29997 3.05C9.49997 2.85 9.73331 2.75 9.99997 2.75C10.2666 2.75 10.5083 2.85833 10.725 3.075C10.925 3.25833 11.025 3.48733 11.025 3.762C11.025 4.03733 10.925 4.275 10.725 4.475L3.17498 12L10.725 19.55C10.9083 19.7333 11 19.9583 11 20.225C11 20.4917 10.9 20.725 10.7 20.925C10.5 21.125 10.2666 21.225 9.99997 21.225C9.73331 21.225 9.49997 21.125 9.29997 20.925Z" fill="#331D24" fill-opacity="0.6"/>
</g>
</svg>
