<svg width="24" height="24" viewBox="0 0 24 24" fill="none" xmlns="http://www.w3.org/2000/svg">
<path d="M11.25 21.5001V20.5193C9.16667 20.3052 7.41283 19.4859 5.9885 18.0616C4.56417 16.6373 3.74492 14.8834 3.53075 12.8001H2.55C2.3375 12.8001 2.15942 12.7282 2.01575 12.5843C1.87192 12.4405 1.8 12.2623 1.8 12.0498C1.8 11.8372 1.87192 11.6591 2.01575 11.5156C2.15942 11.3719 2.3375 11.3001 2.55 11.3001H3.53075C3.74492 9.21676 4.56417 7.46293 5.9885 6.0386C7.41283 4.61426 9.16667 3.79501 11.25 3.58085V2.6001C11.25 2.3876 11.3219 2.20951 11.4657 2.06585C11.6096 1.92201 11.7878 1.8501 12.0002 1.8501C12.2129 1.8501 12.391 1.92201 12.5345 2.06585C12.6782 2.20951 12.75 2.3876 12.75 2.6001V3.58085C14.8333 3.79501 16.5872 4.61426 18.0115 6.0386C19.4358 7.46293 20.2551 9.21676 20.4692 11.3001H21.45C21.6625 11.3001 21.8406 11.372 21.9842 11.5158C22.1281 11.6597 22.2 11.8378 22.2 12.0503C22.2 12.263 22.1281 12.4411 21.9842 12.5846C21.8406 12.7283 21.6625 12.8001 21.45 12.8001H20.4692C20.2551 14.8834 19.4358 16.6373 18.0115 18.0616C16.5872 19.4859 14.8333 20.3052 12.75 20.5193V21.5001C12.75 21.7126 12.6781 21.8907 12.5342 22.0343C12.3904 22.1782 12.2122 22.2501 11.9997 22.2501C11.7871 22.2501 11.609 22.1782 11.4655 22.0343C11.3218 21.8907 11.25 21.7126 11.25 21.5001ZM12 19.0501C13.9333 19.0501 15.5833 18.3668 16.95 17.0001C18.3167 15.6334 19 13.9834 19 12.0501C19 10.1168 18.3167 8.46676 16.95 7.1001C15.5833 5.73343 13.9333 5.0501 12 5.0501C10.0667 5.0501 8.41667 5.73343 7.05 7.1001C5.68333 8.46676 5 10.1168 5 12.0501C5 13.9834 5.68333 15.6334 7.05 17.0001C8.41667 18.3668 10.0667 19.0501 12 19.0501Z" fill="#331D24"/>
</svg>
