<svg width="16" height="16" viewBox="0 0 16 16" fill="none" xmlns="http://www.w3.org/2000/svg">
<path d="M7.99992 11.1409C8.15247 11.1409 8.28036 11.0893 8.38358 10.9861C8.48681 10.8829 8.53842 10.755 8.53842 10.6024C8.53842 10.4499 8.48681 10.322 8.38358 10.2188C8.28036 10.1156 8.15247 10.0641 7.99992 10.0641C7.84736 10.0641 7.71947 10.1156 7.61625 10.2188C7.51303 10.322 7.46142 10.4499 7.46142 10.6024C7.46142 10.755 7.51303 10.8829 7.61625 10.9861C7.71947 11.0893 7.84736 11.1409 7.99992 11.1409ZM8.00009 8.82042C8.14186 8.82042 8.26059 8.77253 8.35625 8.67675C8.45203 8.58086 8.49992 8.46208 8.49992 8.32042V5.29475C8.49992 5.15309 8.45197 5.03436 8.35609 4.93859C8.2602 4.8427 8.14142 4.79475 7.99975 4.79475C7.85797 4.79475 7.73925 4.8427 7.64358 4.93859C7.54781 5.03436 7.49992 5.15309 7.49992 5.29475V8.32042C7.49992 8.46208 7.54786 8.58086 7.64375 8.67675C7.73964 8.77253 7.85842 8.82042 8.00009 8.82042ZM6.13975 13.6666C5.97709 13.6666 5.82209 13.6354 5.67475 13.5729C5.52742 13.5106 5.39909 13.4247 5.28975 13.3153L2.68459 10.7101C2.57514 10.6008 2.48925 10.4724 2.42692 10.3251C2.36447 10.1778 2.33325 10.0228 2.33325 9.86008V6.13975C2.33325 5.97709 2.36447 5.82209 2.42692 5.67475C2.48925 5.52742 2.57514 5.39909 2.68459 5.28975L5.28975 2.68459C5.39909 2.57514 5.52742 2.48925 5.67475 2.42692C5.82209 2.36447 5.97709 2.33325 6.13975 2.33325H9.86008C10.0228 2.33325 10.1778 2.36447 10.3251 2.42692C10.4724 2.48925 10.6008 2.57514 10.7101 2.68459L13.3153 5.28975C13.4247 5.39909 13.5106 5.52742 13.5729 5.67475C13.6354 5.82209 13.6666 5.97709 13.6666 6.13975V9.86008C13.6666 10.0228 13.6354 10.1778 13.5729 10.3251C13.5106 10.4724 13.4247 10.6008 13.3153 10.7101L10.7101 13.3153C10.6008 13.4247 10.4724 13.5106 10.3251 13.5729C10.1778 13.6354 10.0228 13.6666 9.86008 13.6666H6.13975ZM6.06659 12.6666H9.93325L12.6666 9.93325V6.06659L9.93325 3.33325H6.06659L3.33325 6.06659V9.93325L6.06659 12.6666Z" fill="#331D24"/>
</svg>
